<svg class="mainSVG" viewBox="0 0 800 600" xmlns="http://www.w3.org/2000/svg" style="visibility: visible;">
 <defs>   
   <path id="puff" d="M4.5,8.3C6,8.4,6.5,7,6.5,7s2,0.7,2.9-0.1C10,6.4,10.3,4.1,9.1,4c2-0.5,1.5-2.4-0.1-2.9c-1.1-0.3-1.8,0-1.8,0
	s-1.5-1.6-3.4-1C2.5,0.5,2.1,2.3,2.1,2.3S0,2.3,0,4.4c0,1.1,1,2.1,2.2,2.1C2.2,7.9,3.5,8.2,4.5,8.3z" fill="#fff"></path>
   <circle id="dot" cx="0" cy="0" r="5" fill="#fff"></circle>   
</defs>

  <circle id="mainCircle" fill="none" stroke="none" stroke-width="2" stroke-miterlimit="10" cx="400" cy="300" r="130"></circle>
  <path stroke-miterlimit="10" stroke-width="2" stroke="none" fill="none" id="circlePath" d="M530 300 C530 371.79 471.79 430 400 430 328.2 430 270 371.79 270 300 270 228.2 328.2 170 400 170 471.79 170 530 228.2 530 300 z"></path>

  <g id="mainContainer" data-svg-origin="400 300" style="transform-origin: 0px 0px 0px; transform: matrix3d(0.55557, 0.83147, 0, 0, -0.83147, 0.55557, 0, 0, 0, 0, 1, 0, 427.213, -199.259, 0, 1);">
    <g id="car" data-svg-origin="22.799999237060547 11.199999809265137" style="transform-origin: 0px 0px 0px; transform: matrix3d(-0.999221, -0.0394519, 0, 0, 0.0394519, -0.999221, 0, 0, 0, 0, 1, 0, 419.922, 448.188, 0, 1);">
<path id="carRot" fill="#FFF" d="M45.6,16.9l0-11.4c0-3-1.5-5.5-4.5-5.5L3.5,0C0.5,0,0,1.5,0,4.5l0,13.4c0,3,0.5,4.5,3.5,4.5l37.6,0
	C44.1,22.4,45.6,19.9,45.6,16.9z M31.9,21.4l-23.3,0l2.2-2.6l14.1,0L31.9,21.4z M34.2,21c-3.8-1-7.3-3.1-7.3-3.1l0-13.4l7.3-3.1
	C34.2,1.4,37.1,11.9,34.2,21z M6.9,1.5c0-0.9,2.3,3.1,2.3,3.1l0,13.4c0,0-0.7,1.5-2.3,3.1C5.8,19.3,5.1,5.8,6.9,1.5z M24.9,3.9
	l-14.1,0L8.6,1.3l23.3,0L24.9,3.9z" data-svg-origin="0 0" style="transform-origin: 0px 0px 0px; transform: matrix(0.86602, 0.49999, -0.49999, 0.86602, 0, 0);"></path>      
    </g>
  <path id="puff" d="M4.5,8.3C6,8.4,6.5,7,6.5,7s2,0.7,2.9-0.1C10,6.4,10.3,4.1,9.1,4c2-0.5,1.5-2.4-0.1-2.9c-1.1-0.3-1.8,0-1.8,0
	s-1.5-1.6-3.4-1C2.5,0.5,2.1,2.3,2.1,2.3S0,2.3,0,4.4c0,1.1,1,2.1,2.2,2.1C2.2,7.9,3.5,8.2,4.5,8.3z" fill="#fff" data-svg-origin="5.2046380043029785 4.135243654251099" style="transform-origin: 0px 0px 0px; transform: matrix3d(1.21156, 1.59157, 0, 0, -1.59157, 1.21156, 0, 0, 0, 0, 1, 0, 535.48, 290.842, 0, 1); opacity: 0.324845;"></path><path id="puff" d="M4.5,8.3C6,8.4,6.5,7,6.5,7s2,0.7,2.9-0.1C10,6.4,10.3,4.1,9.1,4c2-0.5,1.5-2.4-0.1-2.9c-1.1-0.3-1.8,0-1.8,0
	s-1.5-1.6-3.4-1C2.5,0.5,2.1,2.3,2.1,2.3S0,2.3,0,4.4c0,1.1,1,2.1,2.2,2.1C2.2,7.9,3.5,8.2,4.5,8.3z" fill="#fff" data-svg-origin="5.2046380043029785 4.135243654251099" style="transform-origin: 0px 0px 0px; transform: matrix3d(-0.58153, -1.61174, 0, 0, 1.61174, -0.58153, 0, 0, 0, 0, 1, 0, 530.959, 327.475, 0, 1); opacity: 0.361132;"></path><path id="puff" d="M4.5,8.3C6,8.4,6.5,7,6.5,7s2,0.7,2.9-0.1C10,6.4,10.3,4.1,9.1,4c2-0.5,1.5-2.4-0.1-2.9c-1.1-0.3-1.8,0-1.8,0
	s-1.5-1.6-3.4-1C2.5,0.5,2.1,2.3,2.1,2.3S0,2.3,0,4.4c0,1.1,1,2.1,2.2,2.1C2.2,7.9,3.5,8.2,4.5,8.3z" fill="#fff" data-svg-origin="5.2046380043029785 4.135243654251099" style="transform-origin: 0px 0px 0px; transform: matrix3d(-1.20286, 1.11015, 0, 0, -1.11015, -1.20286, 0, 0, 0, 0, 1, 0, 543.634, 328.308, 0, 1); opacity: 0.400591;"></path><path id="puff" d="M4.5,8.3C6,8.4,6.5,7,6.5,7s2,0.7,2.9-0.1C10,6.4,10.3,4.1,9.1,4c2-0.5,1.5-2.4-0.1-2.9c-1.1-0.3-1.8,0-1.8,0
	s-1.5-1.6-3.4-1C2.5,0.5,2.1,2.3,2.1,2.3S0,2.3,0,4.4c0,1.1,1,2.1,2.2,2.1C2.2,7.9,3.5,8.2,4.5,8.3z" fill="#fff" data-svg-origin="5.2046380043029785 4.135243654251099" style="transform-origin: 0px 0px 0px; transform: matrix3d(-1.87019, -0.276921, 0, 0, 0.276921, -1.87019, 0, 0, 0, 0, 1, 0, 538.365, 350.483, 0, 1); opacity: 0.443427;"></path><path id="puff" d="M4.5,8.3C6,8.4,6.5,7,6.5,7s2,0.7,2.9-0.1C10,6.4,10.3,4.1,9.1,4c2-0.5,1.5-2.4-0.1-2.9c-1.1-0.3-1.8,0-1.8,0
	s-1.5-1.6-3.4-1C2.5,0.5,2.1,2.3,2.1,2.3S0,2.3,0,4.4c0,1.1,1,2.1,2.2,2.1C2.2,7.9,3.5,8.2,4.5,8.3z" fill="#fff" data-svg-origin="5.2046380043029785 4.135243654251099" style="transform-origin: 0px 0px 0px; transform: matrix3d(0.893145, -1.67783, 0, 0, 1.67783, 0.893145, 0, 0, 0, 0, 1, 0, 514.021, 358.197, 0, 1); opacity: 0.48985;"></path><path id="puff" d="M4.5,8.3C6,8.4,6.5,7,6.5,7s2,0.7,2.9-0.1C10,6.4,10.3,4.1,9.1,4c2-0.5,1.5-2.4-0.1-2.9c-1.1-0.3-1.8,0-1.8,0
	s-1.5-1.6-3.4-1C2.5,0.5,2.1,2.3,2.1,2.3S0,2.3,0,4.4c0,1.1,1,2.1,2.2,2.1C2.2,7.9,3.5,8.2,4.5,8.3z" fill="#fff" data-svg-origin="5.2046380043029785 4.135243654251099" style="transform-origin: 0px 0px 0px; transform: matrix3d(-1.06457, 1.05125, 0, 0, -1.05125, -1.06457, 0, 0, 0, 0, 1, 0, 530.202, 363.48, 0, 1); opacity: 0.540083;"></path><path id="puff" d="M4.5,8.3C6,8.4,6.5,7,6.5,7s2,0.7,2.9-0.1C10,6.4,10.3,4.1,9.1,4c2-0.5,1.5-2.4-0.1-2.9c-1.1-0.3-1.8,0-1.8,0
	s-1.5-1.6-3.4-1C2.5,0.5,2.1,2.3,2.1,2.3S0,2.3,0,4.4c0,1.1,1,2.1,2.2,2.1C2.2,7.9,3.5,8.2,4.5,8.3z" fill="#fff" data-svg-origin="5.2046380043029785 4.135243654251099" style="transform-origin: 0px 0px 0px; transform: matrix3d(1.08699, 1.28651, 0, 0, -1.28651, 1.08699, 0, 0, 0, 0, 1, 0, 513.608, 364.186, 0, 1); opacity: 0.594355;"></path><path id="puff" d="M4.5,8.3C6,8.4,6.5,7,6.5,7s2,0.7,2.9-0.1C10,6.4,10.3,4.1,9.1,4c2-0.5,1.5-2.4-0.1-2.9c-1.1-0.3-1.8,0-1.8,0
	s-1.5-1.6-3.4-1C2.5,0.5,2.1,2.3,2.1,2.3S0,2.3,0,4.4c0,1.1,1,2.1,2.2,2.1C2.2,7.9,3.5,8.2,4.5,8.3z" fill="#fff" data-svg-origin="5.2046380043029785 4.135243654251099" style="transform-origin: 0px 0px 0px; transform: matrix3d(1.3562, -0.64392, 0, 0, 0.64392, 1.3562, 0, 0, 0, 0, 1, 0, 496.841, 383.282, 0, 1); opacity: 0.652905;"></path><path id="puff" d="M4.5,8.3C6,8.4,6.5,7,6.5,7s2,0.7,2.9-0.1C10,6.4,10.3,4.1,9.1,4c2-0.5,1.5-2.4-0.1-2.9c-1.1-0.3-1.8,0-1.8,0
	s-1.5-1.6-3.4-1C2.5,0.5,2.1,2.3,2.1,2.3S0,2.3,0,4.4c0,1.1,1,2.1,2.2,2.1C2.2,7.9,3.5,8.2,4.5,8.3z" fill="#fff" data-svg-origin="5.2046380043029785 4.135243654251099" style="transform-origin: 0px 0px 0px; transform: matrix3d(0.386181, -1.48786, 0, 0, 1.48786, 0.386181, 0, 0, 0, 0, 1, 0, 490.07, 401.089, 0, 1); opacity: 0.715981;"></path><path id="puff" d="M4.5,8.3C6,8.4,6.5,7,6.5,7s2,0.7,2.9-0.1C10,6.4,10.3,4.1,9.1,4c2-0.5,1.5-2.4-0.1-2.9c-1.1-0.3-1.8,0-1.8,0
	s-1.5-1.6-3.4-1C2.5,0.5,2.1,2.3,2.1,2.3S0,2.3,0,4.4c0,1.1,1,2.1,2.2,2.1C2.2,7.9,3.5,8.2,4.5,8.3z" fill="#fff" data-svg-origin="5.2046380043029785 4.135243654251099" style="transform-origin: 0px 0px 0px; transform: matrix3d(0.104215, 1.32568, 0, 0, -1.32568, 0.104215, 0, 0, 0, 0, 1, 0, 493.974, 396.166, 0, 1); opacity: 0.78384;"></path><path id="puff" d="M4.5,8.3C6,8.4,6.5,7,6.5,7s2,0.7,2.9-0.1C10,6.4,10.3,4.1,9.1,4c2-0.5,1.5-2.4-0.1-2.9c-1.1-0.3-1.8,0-1.8,0
	s-1.5-1.6-3.4-1C2.5,0.5,2.1,2.3,2.1,2.3S0,2.3,0,4.4c0,1.1,1,2.1,2.2,2.1C2.2,7.9,3.5,8.2,4.5,8.3z" fill="#fff" data-svg-origin="5.2046380043029785 4.135243654251099" style="transform-origin: 0px 0px 0px; transform: matrix3d(-0.798114, 0.954427, 0, 0, -0.954427, -0.798114, 0, 0, 0, 0, 1, 0, 487.154, 409.456, 0, 1); opacity: 0.85675;"></path><path id="puff" d="M4.5,8.3C6,8.4,6.5,7,6.5,7s2,0.7,2.9-0.1C10,6.4,10.3,4.1,9.1,4c2-0.5,1.5-2.4-0.1-2.9c-1.1-0.3-1.8,0-1.8,0
	s-1.5-1.6-3.4-1C2.5,0.5,2.1,2.3,2.1,2.3S0,2.3,0,4.4c0,1.1,1,2.1,2.2,2.1C2.2,7.9,3.5,8.2,4.5,8.3z" fill="#fff" data-svg-origin="5.2046380043029785 4.135243654251099" style="transform-origin: 0px 0px 0px; transform: matrix3d(1.05054, -0.337359, 0, 0, 0.337359, 1.05054, 0, 0, 0, 0, 1, 0, 461.52, 415.163, 0, 1); opacity: 0.934986;"></path><path id="puff" d="M4.5,8.3C6,8.4,6.5,7,6.5,7s2,0.7,2.9-0.1C10,6.4,10.3,4.1,9.1,4c2-0.5,1.5-2.4-0.1-2.9c-1.1-0.3-1.8,0-1.8,0
	s-1.5-1.6-3.4-1C2.5,0.5,2.1,2.3,2.1,2.3S0,2.3,0,4.4c0,1.1,1,2.1,2.2,2.1C2.2,7.9,3.5,8.2,4.5,8.3z" fill="#fff" data-svg-origin="5.2046380043029785 4.135243654251099" style="transform-origin: 0px 0px 0px; transform: matrix3d(0.813529, 0.219734, 0, 0, -0.219734, 0.813529, 0, 0, 0, 0, 1, 0, 453.797, 418.81, 0, 1); opacity: 1;"></path><path id="puff" d="M4.5,8.3C6,8.4,6.5,7,6.5,7s2,0.7,2.9-0.1C10,6.4,10.3,4.1,9.1,4c2-0.5,1.5-2.4-0.1-2.9c-1.1-0.3-1.8,0-1.8,0
	s-1.5-1.6-3.4-1C2.5,0.5,2.1,2.3,2.1,2.3S0,2.3,0,4.4c0,1.1,1,2.1,2.2,2.1C2.2,7.9,3.5,8.2,4.5,8.3z" fill="#fff" data-svg-origin="5.2046380043029785 4.135243654251099" style="transform-origin: 0px 0px 0px; transform: matrix3d(-0.107679, -0.337323, 0, 0, 0.337323, -0.107679, 0, 0, 0, 0, 1, 0, 444.542, 429.974, 0, 1); opacity: 1;"></path><path id="puff" d="M4.5,8.3C6,8.4,6.5,7,6.5,7s2,0.7,2.9-0.1C10,6.4,10.3,4.1,9.1,4c2-0.5,1.5-2.4-0.1-2.9c-1.1-0.3-1.8,0-1.8,0
	s-1.5-1.6-3.4-1C2.5,0.5,2.1,2.3,2.1,2.3S0,2.3,0,4.4c0,1.1,1,2.1,2.2,2.1C2.2,7.9,3.5,8.2,4.5,8.3z" fill="#fff" data-svg-origin="5.2046380043029785 4.135243654251099" style="transform-origin: 0px 0px 0px; transform: matrix3d(0.0739662, -0.0994757, 0, 0, 0.0994757, 0.0739662, 0, 0, 0, 0, 1, 0, 432.46, 431.284, 0, 1); opacity: 1;"></path><path id="puff" d="M4.5,8.3C6,8.4,6.5,7,6.5,7s2,0.7,2.9-0.1C10,6.4,10.3,4.1,9.1,4c2-0.5,1.5-2.4-0.1-2.9c-1.1-0.3-1.8,0-1.8,0
	s-1.5-1.6-3.4-1C2.5,0.5,2.1,2.3,2.1,2.3S0,2.3,0,4.4c0,1.1,1,2.1,2.2,2.1C2.2,7.9,3.5,8.2,4.5,8.3z" fill="#fff" data-svg-origin="5.2046380043029785 4.135243654251099" style="transform-origin: 0px 0px 0px; transform: matrix3d(0.0105057, -0.0310526, 0, 0, 0.0310526, 0.0105057, 0, 0, 0, 0, 1, 0, 420.691, 433.306, 0, 1); opacity: 1;"></path><path id="puff" d="M4.5,8.3C6,8.4,6.5,7,6.5,7s2,0.7,2.9-0.1C10,6.4,10.3,4.1,9.1,4c2-0.5,1.5-2.4-0.1-2.9c-1.1-0.3-1.8,0-1.8,0
	s-1.5-1.6-3.4-1C2.5,0.5,2.1,2.3,2.1,2.3S0,2.3,0,4.4c0,1.1,1,2.1,2.2,2.1C2.2,7.9,3.5,8.2,4.5,8.3z" fill="#fff" data-svg-origin="5.2046380043029785 4.135243654251099" style="transform-origin: 0px 0px 0px; transform: matrix3d(0.00515374, -0.00133853, 0, 0, 0.00133853, 0.00515374, 0, 0, 0, 0, 1, 0, 408.314, 434.083, 0, 1); opacity: 1;"></path><path id="puff" d="M4.5,8.3C6,8.4,6.5,7,6.5,7s2,0.7,2.9-0.1C10,6.4,10.3,4.1,9.1,4c2-0.5,1.5-2.4-0.1-2.9c-1.1-0.3-1.8,0-1.8,0
	s-1.5-1.6-3.4-1C2.5,0.5,2.1,2.3,2.1,2.3S0,2.3,0,4.4c0,1.1,1,2.1,2.2,2.1C2.2,7.9,3.5,8.2,4.5,8.3z" fill="#fff" data-svg-origin="5.2046380043029785 4.135243654251099" style="transform-origin: 0px 0px 0px; transform: matrix3d(3.50532e-05, 0.000295507, 0, 0, -0.000295507, 3.50532e-05, 0, 0, 0, 0, 1, 0, 395.789, 433.792, 0, 1); opacity: 1;"></path><path id="puff" d="M4.5,8.3C6,8.4,6.5,7,6.5,7s2,0.7,2.9-0.1C10,6.4,10.3,4.1,9.1,4c2-0.5,1.5-2.4-0.1-2.9c-1.1-0.3-1.8,0-1.8,0
	s-1.5-1.6-3.4-1C2.5,0.5,2.1,2.3,2.1,2.3S0,2.3,0,4.4c0,1.1,1,2.1,2.2,2.1C2.2,7.9,3.5,8.2,4.5,8.3z" fill="#fff" data-svg-origin="5.2046380043029785 4.135243654251099" style="transform-origin: 0px 0px 0px; transform: matrix3d(0, 0, 0, 0, 0, 0, 0, 0, 0, 0, 1, 0, 383.318, 432.28, 0, 1); opacity: 1;"></path><path id="puff" d="M4.5,8.3C6,8.4,6.5,7,6.5,7s2,0.7,2.9-0.1C10,6.4,10.3,4.1,9.1,4c2-0.5,1.5-2.4-0.1-2.9c-1.1-0.3-1.8,0-1.8,0
	s-1.5-1.6-3.4-1C2.5,0.5,2.1,2.3,2.1,2.3S0,2.3,0,4.4c0,1.1,1,2.1,2.2,2.1C2.2,7.9,3.5,8.2,4.5,8.3z" fill="#fff" data-svg-origin="5.2046380043029785 4.135243654251099" style="transform-origin: 0px 0px 0px; transform: matrix3d(-2.47632, 0.818163, 0, 0, -0.818163, -2.47632, 0, 0, 0, 0, 1, 0, 387.324, 435.551, 0, 1); opacity: 0;"></path><path id="puff" d="M4.5,8.3C6,8.4,6.5,7,6.5,7s2,0.7,2.9-0.1C10,6.4,10.3,4.1,9.1,4c2-0.5,1.5-2.4-0.1-2.9c-1.1-0.3-1.8,0-1.8,0
	s-1.5-1.6-3.4-1C2.5,0.5,2.1,2.3,2.1,2.3S0,2.3,0,4.4c0,1.1,1,2.1,2.2,2.1C2.2,7.9,3.5,8.2,4.5,8.3z" fill="#fff" data-svg-origin="5.2046380043029785 4.135243654251099" style="transform-origin: 0px 0px 0px; transform: matrix3d(2.82942, 0.499162, 0, 0, -0.499162, 2.82942, 0, 0, 0, 0, 1, 0, 346.444, 411.389, 0, 1); opacity: 0;"></path><path id="puff" d="M4.5,8.3C6,8.4,6.5,7,6.5,7s2,0.7,2.9-0.1C10,6.4,10.3,4.1,9.1,4c2-0.5,1.5-2.4-0.1-2.9c-1.1-0.3-1.8,0-1.8,0
	s-1.5-1.6-3.4-1C2.5,0.5,2.1,2.3,2.1,2.3S0,2.3,0,4.4c0,1.1,1,2.1,2.2,2.1C2.2,7.9,3.5,8.2,4.5,8.3z" fill="#fff" data-svg-origin="5.2046380043029785 4.135243654251099" style="transform-origin: 0px 0px 0px; transform: matrix3d(-2.59892, -0.449914, 0, 0, 0.449914, -2.59892, 0, 0, 0, 0, 1, 0, 359.256, 433.76, 0, 1); opacity: 0;"></path><path id="puff" d="M4.5,8.3C6,8.4,6.5,7,6.5,7s2,0.7,2.9-0.1C10,6.4,10.3,4.1,9.1,4c2-0.5,1.5-2.4-0.1-2.9c-1.1-0.3-1.8,0-1.8,0
	s-1.5-1.6-3.4-1C2.5,0.5,2.1,2.3,2.1,2.3S0,2.3,0,4.4c0,1.1,1,2.1,2.2,2.1C2.2,7.9,3.5,8.2,4.5,8.3z" fill="#fff" data-svg-origin="5.2046380043029785 4.135243654251099" style="transform-origin: 0px 0px 0px; transform: matrix3d(-1.76229, -0.954288, 0, 0, 0.954288, -1.76229, 0, 0, 0, 0, 1, 0, 341.837, 426.82, 0, 1); opacity: 1.03802e-06;"></path><path id="puff" d="M4.5,8.3C6,8.4,6.5,7,6.5,7s2,0.7,2.9-0.1C10,6.4,10.3,4.1,9.1,4c2-0.5,1.5-2.4-0.1-2.9c-1.1-0.3-1.8,0-1.8,0
	s-1.5-1.6-3.4-1C2.5,0.5,2.1,2.3,2.1,2.3S0,2.3,0,4.4c0,1.1,1,2.1,2.2,2.1C2.2,7.9,3.5,8.2,4.5,8.3z" fill="#fff" data-svg-origin="5.2046380043029785 4.135243654251099" style="transform-origin: 0px 0px 0px; transform: matrix3d(-1.94472, 1.07933, 0, 0, -1.07933, -1.94472, 0, 0, 0, 0, 1, 0, 340.858, 409.855, 0, 1); opacity: 3.41472e-06;"></path><path id="puff" d="M4.5,8.3C6,8.4,6.5,7,6.5,7s2,0.7,2.9-0.1C10,6.4,10.3,4.1,9.1,4c2-0.5,1.5-2.4-0.1-2.9c-1.1-0.3-1.8,0-1.8,0
	s-1.5-1.6-3.4-1C2.5,0.5,2.1,2.3,2.1,2.3S0,2.3,0,4.4c0,1.1,1,2.1,2.2,2.1C2.2,7.9,3.5,8.2,4.5,8.3z" fill="#fff" data-svg-origin="5.2046380043029785 4.135243654251099" style="transform-origin: 0px 0px 0px; transform: matrix3d(1.73972, 2.13532, 0, 0, -2.13532, 1.73972, 0, 0, 0, 0, 1, 0, 316.448, 381.022, 0, 1); opacity: 8.92743e-06;"></path><path id="puff" d="M4.5,8.3C6,8.4,6.5,7,6.5,7s2,0.7,2.9-0.1C10,6.4,10.3,4.1,9.1,4c2-0.5,1.5-2.4-0.1-2.9c-1.1-0.3-1.8,0-1.8,0
	s-1.5-1.6-3.4-1C2.5,0.5,2.1,2.3,2.1,2.3S0,2.3,0,4.4c0,1.1,1,2.1,2.2,2.1C2.2,7.9,3.5,8.2,4.5,8.3z" fill="#fff" data-svg-origin="5.2046380043029785 4.135243654251099" style="transform-origin: 0px 0px 0px; transform: matrix3d(1.01819, -2.74021, 0, 0, 2.74021, 1.01819, 0, 0, 0, 0, 1, 0, 291.267, 400.393, 0, 1); opacity: 1.99831e-05;"></path><path id="puff" d="M4.5,8.3C6,8.4,6.5,7,6.5,7s2,0.7,2.9-0.1C10,6.4,10.3,4.1,9.1,4c2-0.5,1.5-2.4-0.1-2.9c-1.1-0.3-1.8,0-1.8,0
	s-1.5-1.6-3.4-1C2.5,0.5,2.1,2.3,2.1,2.3S0,2.3,0,4.4c0,1.1,1,2.1,2.2,2.1C2.2,7.9,3.5,8.2,4.5,8.3z" fill="#fff" data-svg-origin="5.2046380043029785 4.135243654251099" style="transform-origin: 0px 0px 0px; transform: matrix3d(2.28271, 1.08582, 0, 0, -1.08582, 2.28271, 0, 0, 0, 0, 1, 0, 292.642, 365.456, 0, 1); opacity: 3.99904e-05;"></path><path id="puff" d="M4.5,8.3C6,8.4,6.5,7,6.5,7s2,0.7,2.9-0.1C10,6.4,10.3,4.1,9.1,4c2-0.5,1.5-2.4-0.1-2.9c-1.1-0.3-1.8,0-1.8,0
	s-1.5-1.6-3.4-1C2.5,0.5,2.1,2.3,2.1,2.3S0,2.3,0,4.4c0,1.1,1,2.1,2.2,2.1C2.2,7.9,3.5,8.2,4.5,8.3z" fill="#fff" data-svg-origin="5.2046380043029785 4.135243654251099" style="transform-origin: 0px 0px 0px; transform: matrix3d(1.79337, 1.64439, 0, 0, -1.64439, 1.79337, 0, 0, 0, 0, 1, 0, 290.615, 354.066, 0, 1); opacity: 7.35346e-05;"></path><path id="puff" d="M4.5,8.3C6,8.4,6.5,7,6.5,7s2,0.7,2.9-0.1C10,6.4,10.3,4.1,9.1,4c2-0.5,1.5-2.4-0.1-2.9c-1.1-0.3-1.8,0-1.8,0
	s-1.5-1.6-3.4-1C2.5,0.5,2.1,2.3,2.1,2.3S0,2.3,0,4.4c0,1.1,1,2.1,2.2,2.1C2.2,7.9,3.5,8.2,4.5,8.3z" fill="#fff" data-svg-origin="5.2046380043029785 4.135243654251099" style="transform-origin: 0px 0px 0px; transform: matrix3d(-0.703682, 2.87922, 0, 0, -2.87922, -0.703682, 0, 0, 0, 0, 1, 0, 302.88, 346.842, 0, 1); opacity: 0.000126553;"></path><path id="puff" d="M4.5,8.3C6,8.4,6.5,7,6.5,7s2,0.7,2.9-0.1C10,6.4,10.3,4.1,9.1,4c2-0.5,1.5-2.4-0.1-2.9c-1.1-0.3-1.8,0-1.8,0
	s-1.5-1.6-3.4-1C2.5,0.5,2.1,2.3,2.1,2.3S0,2.3,0,4.4c0,1.1,1,2.1,2.2,2.1C2.2,7.9,3.5,8.2,4.5,8.3z" fill="#fff" data-svg-origin="5.2046380043029785 4.135243654251099" style="transform-origin: 0px 0px 0px; transform: matrix3d(-0.967636, -2.45136, 0, 0, 2.45136, -0.967636, 0, 0, 0, 0, 1, 0, 277.473, 364.043, 0, 1); opacity: 0.00020651;"></path><path id="puff" d="M4.5,8.3C6,8.4,6.5,7,6.5,7s2,0.7,2.9-0.1C10,6.4,10.3,4.1,9.1,4c2-0.5,1.5-2.4-0.1-2.9c-1.1-0.3-1.8,0-1.8,0
	s-1.5-1.6-3.4-1C2.5,0.5,2.1,2.3,2.1,2.3S0,2.3,0,4.4c0,1.1,1,2.1,2.2,2.1C2.2,7.9,3.5,8.2,4.5,8.3z" fill="#fff" data-svg-origin="5.2046380043029785 4.135243654251099" style="transform-origin: 0px 0px 0px; transform: matrix3d(1.92345, 1.95966, 0, 0, -1.95966, 1.92345, 0, 0, 0, 0, 1, 0, 277.075, 317.093, 0, 1); opacity: 0.000322572;"></path><path id="puff" d="M4.5,8.3C6,8.4,6.5,7,6.5,7s2,0.7,2.9-0.1C10,6.4,10.3,4.1,9.1,4c2-0.5,1.5-2.4-0.1-2.9c-1.1-0.3-1.8,0-1.8,0
	s-1.5-1.6-3.4-1C2.5,0.5,2.1,2.3,2.1,2.3S0,2.3,0,4.4c0,1.1,1,2.1,2.2,2.1C2.2,7.9,3.5,8.2,4.5,8.3z" fill="#fff" data-svg-origin="5.2046380043029785 4.135243654251099" style="transform-origin: 0px 0px 0px; transform: matrix3d(1.92196, 0.949838, 0, 0, -0.949838, 1.92196, 0, 0, 0, 0, 1, 0, 270.494, 310.027, 0, 1); opacity: 0.000485784;"></path><path id="puff" d="M4.5,8.3C6,8.4,6.5,7,6.5,7s2,0.7,2.9-0.1C10,6.4,10.3,4.1,9.1,4c2-0.5,1.5-2.4-0.1-2.9c-1.1-0.3-1.8,0-1.8,0
	s-1.5-1.6-3.4-1C2.5,0.5,2.1,2.3,2.1,2.3S0,2.3,0,4.4c0,1.1,1,2.1,2.2,2.1C2.2,7.9,3.5,8.2,4.5,8.3z" fill="#fff" data-svg-origin="5.2046380043029785 4.135243654251099" style="transform-origin: 0px 0px 0px; transform: matrix3d(-1.94821, -1.10106, 0, 0, 1.10106, -1.94821, 0, 0, 0, 0, 1, 0, 280.943, 324.203, 0, 1); opacity: 0.00070924;"></path><path id="puff" d="M4.5,8.3C6,8.4,6.5,7,6.5,7s2,0.7,2.9-0.1C10,6.4,10.3,4.1,9.1,4c2-0.5,1.5-2.4-0.1-2.9c-1.1-0.3-1.8,0-1.8,0
	s-1.5-1.6-3.4-1C2.5,0.5,2.1,2.3,2.1,2.3S0,2.3,0,4.4c0,1.1,1,2.1,2.2,2.1C2.2,7.9,3.5,8.2,4.5,8.3z" fill="#fff" data-svg-origin="5.2046380043029785 4.135243654251099" style="transform-origin: 0px 0px 0px; transform: matrix3d(-1.06339, -2.47304, 0, 0, 2.47304, -1.06339, 0, 0, 0, 0, 1, 0, 270.664, 315.123, 0, 1); opacity: 0.00100827;"></path><path id="puff" d="M4.5,8.3C6,8.4,6.5,7,6.5,7s2,0.7,2.9-0.1C10,6.4,10.3,4.1,9.1,4c2-0.5,1.5-2.4-0.1-2.9c-1.1-0.3-1.8,0-1.8,0
	s-1.5-1.6-3.4-1C2.5,0.5,2.1,2.3,2.1,2.3S0,2.3,0,4.4c0,1.1,1,2.1,2.2,2.1C2.2,7.9,3.5,8.2,4.5,8.3z" fill="#fff" data-svg-origin="5.2046380043029785 4.135243654251099" style="transform-origin: 0px 0px 0px; transform: matrix3d(-1.56622, 1.45544, 0, 0, -1.45544, -1.56622, 0, 0, 0, 0, 1, 0, 290.739, 284.253, 0, 1); opacity: 0.00140059;"></path><path id="puff" d="M4.5,8.3C6,8.4,6.5,7,6.5,7s2,0.7,2.9-0.1C10,6.4,10.3,4.1,9.1,4c2-0.5,1.5-2.4-0.1-2.9c-1.1-0.3-1.8,0-1.8,0
	s-1.5-1.6-3.4-1C2.5,0.5,2.1,2.3,2.1,2.3S0,2.3,0,4.4c0,1.1,1,2.1,2.2,2.1C2.2,7.9,3.5,8.2,4.5,8.3z" fill="#fff" data-svg-origin="5.2046380043029785 4.135243654251099" style="transform-origin: 0px 0px 0px; transform: matrix3d(-2.55167, 0.573057, 0, 0, -0.573057, -2.55167, 0, 0, 0, 0, 1, 0, 294.632, 280.593, 0, 1); opacity: 0.00190651;"></path><path id="puff" d="M4.5,8.3C6,8.4,6.5,7,6.5,7s2,0.7,2.9-0.1C10,6.4,10.3,4.1,9.1,4c2-0.5,1.5-2.4-0.1-2.9c-1.1-0.3-1.8,0-1.8,0
	s-1.5-1.6-3.4-1C2.5,0.5,2.1,2.3,2.1,2.3S0,2.3,0,4.4c0,1.1,1,2.1,2.2,2.1C2.2,7.9,3.5,8.2,4.5,8.3z" fill="#fff" data-svg-origin="5.2046380043029785 4.135243654251099" style="transform-origin: 0px 0px 0px; transform: matrix3d(-2.1901, 1.28569, 0, 0, -1.28569, -2.1901, 0, 0, 0, 0, 1, 0, 299.289, 263.352, 0, 1); opacity: 0.0025491;"></path><path id="puff" d="M4.5,8.3C6,8.4,6.5,7,6.5,7s2,0.7,2.9-0.1C10,6.4,10.3,4.1,9.1,4c2-0.5,1.5-2.4-0.1-2.9c-1.1-0.3-1.8,0-1.8,0
	s-1.5-1.6-3.4-1C2.5,0.5,2.1,2.3,2.1,2.3S0,2.3,0,4.4c0,1.1,1,2.1,2.2,2.1C2.2,7.9,3.5,8.2,4.5,8.3z" fill="#fff" data-svg-origin="5.2046380043029785 4.135243654251099" style="transform-origin: 0px 0px 0px; transform: matrix3d(-2.54274, 0.032837, 0, 0, -0.032837, -2.54274, 0, 0, 0, 0, 1, 0, 300.681, 259.697, 0, 1); opacity: 0.00335432;"></path><path id="puff" d="M4.5,8.3C6,8.4,6.5,7,6.5,7s2,0.7,2.9-0.1C10,6.4,10.3,4.1,9.1,4c2-0.5,1.5-2.4-0.1-2.9c-1.1-0.3-1.8,0-1.8,0
	s-1.5-1.6-3.4-1C2.5,0.5,2.1,2.3,2.1,2.3S0,2.3,0,4.4c0,1.1,1,2.1,2.2,2.1C2.2,7.9,3.5,8.2,4.5,8.3z" fill="#fff" data-svg-origin="5.2046380043029785 4.135243654251099" style="transform-origin: 0px 0px 0px; transform: matrix3d(0.547828, -2.51139, 0, 0, 2.51139, 0.547828, 0, 0, 0, 0, 1, 0, 279.912, 249.036, 0, 1); opacity: 0.00435129;"></path><path id="puff" d="M4.5,8.3C6,8.4,6.5,7,6.5,7s2,0.7,2.9-0.1C10,6.4,10.3,4.1,9.1,4c2-0.5,1.5-2.4-0.1-2.9c-1.1-0.3-1.8,0-1.8,0
	s-1.5-1.6-3.4-1C2.5,0.5,2.1,2.3,2.1,2.3S0,2.3,0,4.4c0,1.1,1,2.1,2.2,2.1C2.2,7.9,3.5,8.2,4.5,8.3z" fill="#fff" data-svg-origin="5.2046380043029785 4.135243654251099" style="transform-origin: 0px 0px 0px; transform: matrix3d(-0.372613, 2.03902, 0, 0, -2.03902, -0.372613, 0, 0, 0, 0, 1, 0, 310.404, 218.652, 0, 1); opacity: 0.00557235;"></path><path id="puff" d="M4.5,8.3C6,8.4,6.5,7,6.5,7s2,0.7,2.9-0.1C10,6.4,10.3,4.1,9.1,4c2-0.5,1.5-2.4-0.1-2.9c-1.1-0.3-1.8,0-1.8,0
	s-1.5-1.6-3.4-1C2.5,0.5,2.1,2.3,2.1,2.3S0,2.3,0,4.4c0,1.1,1,2.1,2.2,2.1C2.2,7.9,3.5,8.2,4.5,8.3z" fill="#fff" data-svg-origin="5.2046380043029785 4.135243654251099" style="transform-origin: 0px 0px 0px; transform: matrix3d(-0.106515, 2.83819, 0, 0, -2.83819, -0.106515, 0, 0, 0, 0, 1, 0, 320.189, 203.598, 0, 1); opacity: 0.00705334;"></path><path id="puff" d="M4.5,8.3C6,8.4,6.5,7,6.5,7s2,0.7,2.9-0.1C10,6.4,10.3,4.1,9.1,4c2-0.5,1.5-2.4-0.1-2.9c-1.1-0.3-1.8,0-1.8,0
	s-1.5-1.6-3.4-1C2.5,0.5,2.1,2.3,2.1,2.3S0,2.3,0,4.4c0,1.1,1,2.1,2.2,2.1C2.2,7.9,3.5,8.2,4.5,8.3z" fill="#fff" data-svg-origin="5.2046380043029785 4.135243654251099" style="transform-origin: 0px 0px 0px; transform: matrix3d(-0.946097, 2.58694, 0, 0, -2.58694, -0.946097, 0, 0, 0, 0, 1, 0, 332.294, 199.389, 0, 1); opacity: 0.0088337;"></path><path id="puff" d="M4.5,8.3C6,8.4,6.5,7,6.5,7s2,0.7,2.9-0.1C10,6.4,10.3,4.1,9.1,4c2-0.5,1.5-2.4-0.1-2.9c-1.1-0.3-1.8,0-1.8,0
	s-1.5-1.6-3.4-1C2.5,0.5,2.1,2.3,2.1,2.3S0,2.3,0,4.4c0,1.1,1,2.1,2.2,2.1C2.2,7.9,3.5,8.2,4.5,8.3z" fill="#fff" data-svg-origin="5.2046380043029785 4.135243654251099" style="transform-origin: 0px 0px 0px; transform: matrix3d(-2.68241, 0.453874, 0, 0, -0.453874, -2.68241, 0, 0, 0, 0, 1, 0, 342.111, 209.57, 0, 1); opacity: 0.0109567;"></path><path id="puff" d="M4.5,8.3C6,8.4,6.5,7,6.5,7s2,0.7,2.9-0.1C10,6.4,10.3,4.1,9.1,4c2-0.5,1.5-2.4-0.1-2.9c-1.1-0.3-1.8,0-1.8,0
	s-1.5-1.6-3.4-1C2.5,0.5,2.1,2.3,2.1,2.3S0,2.3,0,4.4c0,1.1,1,2.1,2.2,2.1C2.2,7.9,3.5,8.2,4.5,8.3z" fill="#fff" data-svg-origin="5.2046380043029785 4.135243654251099" style="transform-origin: 0px 0px 0px; transform: matrix3d(-1.32929, 2.54148, 0, 0, -2.54148, -1.32929, 0, 0, 0, 0, 1, 0, 354.04, 185.974, 0, 1); opacity: 0.0134696;"></path><path id="puff" d="M4.5,8.3C6,8.4,6.5,7,6.5,7s2,0.7,2.9-0.1C10,6.4,10.3,4.1,9.1,4c2-0.5,1.5-2.4-0.1-2.9c-1.1-0.3-1.8,0-1.8,0
	s-1.5-1.6-3.4-1C2.5,0.5,2.1,2.3,2.1,2.3S0,2.3,0,4.4c0,1.1,1,2.1,2.2,2.1C2.2,7.9,3.5,8.2,4.5,8.3z" fill="#fff" data-svg-origin="5.2046380043029785 4.135243654251099" style="transform-origin: 0px 0px 0px; transform: matrix3d(-0.250727, 2.45386, 0, 0, -2.45386, -0.250727, 0, 0, 0, 0, 1, 0, 359.042, 175.865, 0, 1); opacity: 0.0164237;"></path><path id="puff" d="M4.5,8.3C6,8.4,6.5,7,6.5,7s2,0.7,2.9-0.1C10,6.4,10.3,4.1,9.1,4c2-0.5,1.5-2.4-0.1-2.9c-1.1-0.3-1.8,0-1.8,0
	s-1.5-1.6-3.4-1C2.5,0.5,2.1,2.3,2.1,2.3S0,2.3,0,4.4c0,1.1,1,2.1,2.2,2.1C2.2,7.9,3.5,8.2,4.5,8.3z" fill="#fff" data-svg-origin="5.2046380043029785 4.135243654251099" style="transform-origin: 0px 0px 0px; transform: matrix3d(-0.624603, -2.28344, 0, 0, 2.28344, -0.624603, 0, 0, 0, 0, 1, 0, 352.914, 197.05, 0, 1); opacity: 0.0198747;"></path><path id="puff" d="M4.5,8.3C6,8.4,6.5,7,6.5,7s2,0.7,2.9-0.1C10,6.4,10.3,4.1,9.1,4c2-0.5,1.5-2.4-0.1-2.9c-1.1-0.3-1.8,0-1.8,0
	s-1.5-1.6-3.4-1C2.5,0.5,2.1,2.3,2.1,2.3S0,2.3,0,4.4c0,1.1,1,2.1,2.2,2.1C2.2,7.9,3.5,8.2,4.5,8.3z" fill="#fff" data-svg-origin="5.2046380043029785 4.135243654251099" style="transform-origin: 0px 0px 0px; transform: matrix3d(-2.62054, -0.869191, 0, 0, 0.869191, -2.62054, 0, 0, 0, 0, 1, 0, 381.097, 194.062, 0, 1); opacity: 0.023883;"></path><path id="puff" d="M4.5,8.3C6,8.4,6.5,7,6.5,7s2,0.7,2.9-0.1C10,6.4,10.3,4.1,9.1,4c2-0.5,1.5-2.4-0.1-2.9c-1.1-0.3-1.8,0-1.8,0
	s-1.5-1.6-3.4-1C2.5,0.5,2.1,2.3,2.1,2.3S0,2.3,0,4.4c0,1.1,1,2.1,2.2,2.1C2.2,7.9,3.5,8.2,4.5,8.3z" fill="#fff" data-svg-origin="5.2046380043029785 4.135243654251099" style="transform-origin: 0px 0px 0px; transform: matrix3d(2.20992, 0.166438, 0, 0, -0.166438, 2.20992, 0, 0, 0, 0, 1, 0, 372.505, 165.986, 0, 1); opacity: 0.0285134;"></path><path id="puff" d="M4.5,8.3C6,8.4,6.5,7,6.5,7s2,0.7,2.9-0.1C10,6.4,10.3,4.1,9.1,4c2-0.5,1.5-2.4-0.1-2.9c-1.1-0.3-1.8,0-1.8,0
	s-1.5-1.6-3.4-1C2.5,0.5,2.1,2.3,2.1,2.3S0,2.3,0,4.4c0,1.1,1,2.1,2.2,2.1C2.2,7.9,3.5,8.2,4.5,8.3z" fill="#fff" data-svg-origin="5.2046380043029785 4.135243654251099" style="transform-origin: 0px 0px 0px; transform: matrix3d(-0.832798, -2.03416, 0, 0, 2.03416, -0.832798, 0, 0, 0, 0, 1, 0, 391.711, 188.508, 0, 1); opacity: 0.0338356;"></path><path id="puff" d="M4.5,8.3C6,8.4,6.5,7,6.5,7s2,0.7,2.9-0.1C10,6.4,10.3,4.1,9.1,4c2-0.5,1.5-2.4-0.1-2.9c-1.1-0.3-1.8,0-1.8,0
	s-1.5-1.6-3.4-1C2.5,0.5,2.1,2.3,2.1,2.3S0,2.3,0,4.4c0,1.1,1,2.1,2.2,2.1C2.2,7.9,3.5,8.2,4.5,8.3z" fill="#fff" data-svg-origin="5.2046380043029785 4.135243654251099" style="transform-origin: 0px 0px 0px; transform: matrix3d(-2.09792, -1.91685, 0, 0, 1.91685, -2.09792, 0, 0, 0, 0, 1, 0, 411.338, 192.825, 0, 1); opacity: 0.0399244;"></path><path id="puff" d="M4.5,8.3C6,8.4,6.5,7,6.5,7s2,0.7,2.9-0.1C10,6.4,10.3,4.1,9.1,4c2-0.5,1.5-2.4-0.1-2.9c-1.1-0.3-1.8,0-1.8,0
	s-1.5-1.6-3.4-1C2.5,0.5,2.1,2.3,2.1,2.3S0,2.3,0,4.4c0,1.1,1,2.1,2.2,2.1C2.2,7.9,3.5,8.2,4.5,8.3z" fill="#fff" data-svg-origin="5.2046380043029785 4.135243654251099" style="transform-origin: 0px 0px 0px; transform: matrix3d(-1.8483, -1.61769, 0, 0, 1.61769, -1.8483, 0, 0, 0, 0, 1, 0, 423.805, 191.146, 0, 1); opacity: 0.0468599;"></path><path id="puff" d="M4.5,8.3C6,8.4,6.5,7,6.5,7s2,0.7,2.9-0.1C10,6.4,10.3,4.1,9.1,4c2-0.5,1.5-2.4-0.1-2.9c-1.1-0.3-1.8,0-1.8,0
	s-1.5-1.6-3.4-1C2.5,0.5,2.1,2.3,2.1,2.3S0,2.3,0,4.4c0,1.1,1,2.1,2.2,2.1C2.2,7.9,3.5,8.2,4.5,8.3z" fill="#fff" data-svg-origin="5.2046380043029785 4.135243654251099" style="transform-origin: 0px 0px 0px; transform: matrix3d(1.75475, -1.54481, 0, 0, 1.54481, 1.75475, 0, 0, 0, 0, 1, 0, 417.736, 177.982, 0, 1); opacity: 0.0547273;"></path><path id="puff" d="M4.5,8.3C6,8.4,6.5,7,6.5,7s2,0.7,2.9-0.1C10,6.4,10.3,4.1,9.1,4c2-0.5,1.5-2.4-0.1-2.9c-1.1-0.3-1.8,0-1.8,0
	s-1.5-1.6-3.4-1C2.5,0.5,2.1,2.3,2.1,2.3S0,2.3,0,4.4c0,1.1,1,2.1,2.2,2.1C2.2,7.9,3.5,8.2,4.5,8.3z" fill="#fff" data-svg-origin="5.2046380043029785 4.135243654251099" style="transform-origin: 0px 0px 0px; transform: matrix3d(-1.76787, -1.8095, 0, 0, 1.8095, -1.76787, 0, 0, 0, 0, 1, 0, 447.095, 197.226, 0, 1); opacity: 0.0636177;"></path><path id="puff" d="M4.5,8.3C6,8.4,6.5,7,6.5,7s2,0.7,2.9-0.1C10,6.4,10.3,4.1,9.1,4c2-0.5,1.5-2.4-0.1-2.9c-1.1-0.3-1.8,0-1.8,0
	s-1.5-1.6-3.4-1C2.5,0.5,2.1,2.3,2.1,2.3S0,2.3,0,4.4c0,1.1,1,2.1,2.2,2.1C2.2,7.9,3.5,8.2,4.5,8.3z" fill="#fff" data-svg-origin="5.2046380043029785 4.135243654251099" style="transform-origin: 0px 0px 0px; transform: matrix3d(-0.297473, 2.71869, 0, 0, -2.71869, -0.297473, 0, 0, 0, 0, 1, 0, 469.913, 172.033, 0, 1); opacity: 0.0736277;"></path><path id="puff" d="M4.5,8.3C6,8.4,6.5,7,6.5,7s2,0.7,2.9-0.1C10,6.4,10.3,4.1,9.1,4c2-0.5,1.5-2.4-0.1-2.9c-1.1-0.3-1.8,0-1.8,0
	s-1.5-1.6-3.4-1C2.5,0.5,2.1,2.3,2.1,2.3S0,2.3,0,4.4c0,1.1,1,2.1,2.2,2.1C2.2,7.9,3.5,8.2,4.5,8.3z" fill="#fff" data-svg-origin="5.2046380043029785 4.135243654251099" style="transform-origin: 0px 0px 0px; transform: matrix3d(2.38616, 0.244486, 0, 0, -0.244486, 2.38616, 0, 0, 0, 0, 1, 0, 456.974, 179.38, 0, 1); opacity: 0.0848598;"></path><path id="puff" d="M4.5,8.3C6,8.4,6.5,7,6.5,7s2,0.7,2.9-0.1C10,6.4,10.3,4.1,9.1,4c2-0.5,1.5-2.4-0.1-2.9c-1.1-0.3-1.8,0-1.8,0
	s-1.5-1.6-3.4-1C2.5,0.5,2.1,2.3,2.1,2.3S0,2.3,0,4.4c0,1.1,1,2.1,2.2,2.1C2.2,7.9,3.5,8.2,4.5,8.3z" fill="#fff" data-svg-origin="5.2046380043029785 4.135243654251099" style="transform-origin: 0px 0px 0px; transform: matrix3d(1.06631, 2.58346, 0, 0, -2.58346, 1.06631, 0, 0, 0, 0, 1, 0, 484.187, 179.292, 0, 1); opacity: 0.0974227;"></path><path id="puff" d="M4.5,8.3C6,8.4,6.5,7,6.5,7s2,0.7,2.9-0.1C10,6.4,10.3,4.1,9.1,4c2-0.5,1.5-2.4-0.1-2.9c-1.1-0.3-1.8,0-1.8,0
	s-1.5-1.6-3.4-1C2.5,0.5,2.1,2.3,2.1,2.3S0,2.3,0,4.4c0,1.1,1,2.1,2.2,2.1C2.2,7.9,3.5,8.2,4.5,8.3z" fill="#fff" data-svg-origin="5.2046380043029785 4.135243654251099" style="transform-origin: 0px 0px 0px; transform: matrix3d(-0.0794102, 1.94033, 0, 0, -1.94033, -0.0794102, 0, 0, 0, 0, 1, 0, 497.471, 195.004, 0, 1); opacity: 0.111431;"></path><path id="puff" d="M4.5,8.3C6,8.4,6.5,7,6.5,7s2,0.7,2.9-0.1C10,6.4,10.3,4.1,9.1,4c2-0.5,1.5-2.4-0.1-2.9c-1.1-0.3-1.8,0-1.8,0
	s-1.5-1.6-3.4-1C2.5,0.5,2.1,2.3,2.1,2.3S0,2.3,0,4.4c0,1.1,1,2.1,2.2,2.1C2.2,7.9,3.5,8.2,4.5,8.3z" fill="#fff" data-svg-origin="5.2046380043029785 4.135243654251099" style="transform-origin: 0px 0px 0px; transform: matrix3d(2.1579, -1.47236, 0, 0, 1.47236, 2.1579, 0, 0, 0, 0, 1, 0, 480.913, 212.068, 0, 1); opacity: 0.127007;"></path><path id="puff" d="M4.5,8.3C6,8.4,6.5,7,6.5,7s2,0.7,2.9-0.1C10,6.4,10.3,4.1,9.1,4c2-0.5,1.5-2.4-0.1-2.9c-1.1-0.3-1.8,0-1.8,0
	s-1.5-1.6-3.4-1C2.5,0.5,2.1,2.3,2.1,2.3S0,2.3,0,4.4c0,1.1,1,2.1,2.2,2.1C2.2,7.9,3.5,8.2,4.5,8.3z" fill="#fff" data-svg-origin="5.2046380043029785 4.135243654251099" style="transform-origin: 0px 0px 0px; transform: matrix3d(-1.23989, 2.04677, 0, 0, -2.04677, -1.23989, 0, 0, 0, 0, 1, 0, 521.479, 217.206, 0, 1); opacity: 0.144277;"></path><path id="puff" d="M4.5,8.3C6,8.4,6.5,7,6.5,7s2,0.7,2.9-0.1C10,6.4,10.3,4.1,9.1,4c2-0.5,1.5-2.4-0.1-2.9c-1.1-0.3-1.8,0-1.8,0
	s-1.5-1.6-3.4-1C2.5,0.5,2.1,2.3,2.1,2.3S0,2.3,0,4.4c0,1.1,1,2.1,2.2,2.1C2.2,7.9,3.5,8.2,4.5,8.3z" fill="#fff" data-svg-origin="5.2046380043029785 4.135243654251099" style="transform-origin: 0px 0px 0px; transform: matrix3d(2.45361, -0.413003, 0, 0, 0.413003, 2.45361, 0, 0, 0, 0, 1, 0, 499.468, 224.897, 0, 1); opacity: 0.163378;"></path><path id="puff" d="M4.5,8.3C6,8.4,6.5,7,6.5,7s2,0.7,2.9-0.1C10,6.4,10.3,4.1,9.1,4c2-0.5,1.5-2.4-0.1-2.9c-1.1-0.3-1.8,0-1.8,0
	s-1.5-1.6-3.4-1C2.5,0.5,2.1,2.3,2.1,2.3S0,2.3,0,4.4c0,1.1,1,2.1,2.2,2.1C2.2,7.9,3.5,8.2,4.5,8.3z" fill="#fff" data-svg-origin="5.2046380043029785 4.135243654251099" style="transform-origin: 0px 0px 0px; transform: matrix3d(-0.416856, -2.52252, 0, 0, 2.52252, -0.416856, 0, 0, 0, 0, 1, 0, 512.052, 258.574, 0, 1); opacity: 0.184449;"></path><path id="puff" d="M4.5,8.3C6,8.4,6.5,7,6.5,7s2,0.7,2.9-0.1C10,6.4,10.3,4.1,9.1,4c2-0.5,1.5-2.4-0.1-2.9c-1.1-0.3-1.8,0-1.8,0
	s-1.5-1.6-3.4-1C2.5,0.5,2.1,2.3,2.1,2.3S0,2.3,0,4.4c0,1.1,1,2.1,2.2,2.1C2.2,7.9,3.5,8.2,4.5,8.3z" fill="#fff" data-svg-origin="5.2046380043029785 4.135243654251099" style="transform-origin: 0px 0px 0px; transform: matrix3d(2.41808, -0.447545, 0, 0, 0.447545, 2.41808, 0, 0, 0, 0, 1, 0, 511.171, 247.443, 0, 1); opacity: 0.207641;"></path><path id="puff" d="M4.5,8.3C6,8.4,6.5,7,6.5,7s2,0.7,2.9-0.1C10,6.4,10.3,4.1,9.1,4c2-0.5,1.5-2.4-0.1-2.9c-1.1-0.3-1.8,0-1.8,0
	s-1.5-1.6-3.4-1C2.5,0.5,2.1,2.3,2.1,2.3S0,2.3,0,4.4c0,1.1,1,2.1,2.2,2.1C2.2,7.9,3.5,8.2,4.5,8.3z" fill="#fff" data-svg-origin="5.2046380043029785 4.135243654251099" style="transform-origin: 0px 0px 0px; transform: matrix3d(-0.911761, 1.52173, 0, 0, -1.52173, -0.911761, 0, 0, 0, 0, 1, 0, 540.815, 262.813, 0, 1); opacity: 0.233109;"></path><path id="puff" d="M4.5,8.3C6,8.4,6.5,7,6.5,7s2,0.7,2.9-0.1C10,6.4,10.3,4.1,9.1,4c2-0.5,1.5-2.4-0.1-2.9c-1.1-0.3-1.8,0-1.8,0
	s-1.5-1.6-3.4-1C2.5,0.5,2.1,2.3,2.1,2.3S0,2.3,0,4.4c0,1.1,1,2.1,2.2,2.1C2.2,7.9,3.5,8.2,4.5,8.3z" fill="#fff" data-svg-origin="5.2046380043029785 4.135243654251099" style="transform-origin: 0px 0px 0px; transform: matrix3d(0.276375, -1.98031, 0, 0, 1.98031, 0.276375, 0, 0, 0, 0, 1, 0, 523.155, 288.323, 0, 1); opacity: 0.261017;"></path><path id="puff" d="M4.5,8.3C6,8.4,6.5,7,6.5,7s2,0.7,2.9-0.1C10,6.4,10.3,4.1,9.1,4c2-0.5,1.5-2.4-0.1-2.9c-1.1-0.3-1.8,0-1.8,0
	s-1.5-1.6-3.4-1C2.5,0.5,2.1,2.3,2.1,2.3S0,2.3,0,4.4c0,1.1,1,2.1,2.2,2.1C2.2,7.9,3.5,8.2,4.5,8.3z" fill="#fff" data-svg-origin="5.2046380043029785 4.135243654251099" style="transform-origin: 0px 0px 0px; transform: matrix3d(-1.56406, -1.58032, 0, 0, 1.58032, -1.56406, 0, 0, 0, 0, 1, 0, 536.203, 306.281, 0, 1); opacity: 0.291536;"></path></g>
</svg>